<svg width="48" height="48" viewBox="0 0 24 24" fill="#25314C" xmlns="http://www.w3.org/2000/svg"><path d="m20.842 13.317-2.565 5.13a1 1 0 0 1-.894.553H14.81a.5.5 0 0 1-.447-.724L17.001 13h-2.5a1.5 1.5 0 0 1-1.5-1.5v-5a1.5 1.5 0 0 1 1.5-1.5h5a1.5 1.5 0 0 1 1.5 1.5v6.146c0 .233-.054.463-.158.671ZM11 12.646V6.5A1.5 1.5 0 0 0 9.5 5h-5A1.5 1.5 0 0 0 3 6.5v5A1.5 1.5 0 0 0 4.5 13H7l-2.638 5.276a.5.5 0 0 0 .447.724h2.573a.998.998 0 0 0 .894-.553l2.565-5.13c.104-.208.158-.438.158-.671Z" fill="#25314C"></path></svg>